<svg xmlns="http://www.w3.org/2000/svg" viewBox="0 0 370.57 141.73"><defs><style>.a{fill:#fff;}</style></defs><path class="a" d="M130.34,44.51a6.85,6.85,0,0,0-12.55,0L103.52,77.32,89.26,44.51a6.85,6.85,0,0,0-12.56,0L56.16,91.76a6.85,6.85,0,1,0,12.56,5.46L83,64.42l14.26,32.8a6.85,6.85,0,0,0,12.56,0l14.26-32.8,14.27,32.8a6.85,6.85,0,1,0,12.56-5.46Z"/><path class="a" d="M209,41a6.86,6.86,0,0,0-9,3.55L185.69,77.32,171.43,44.51A6.85,6.85,0,0,0,158.87,50l20.54,47.25a6.85,6.85,0,0,0,12.56,0L212.51,50A6.85,6.85,0,0,0,209,41Z"/><path class="a" d="M315.23,91.76,294.68,44.51a6.85,6.85,0,0,0-12.55,0L267.86,77.32,253.6,44.51a6.85,6.85,0,0,0-12.56,0L220.5,91.76a6.85,6.85,0,0,0,12.56,5.46l14.26-32.8,14.26,32.8a6.85,6.85,0,0,0,12.56,0l14.26-32.8,14.27,32.8a6.85,6.85,0,1,0,12.56-5.46Z"/></svg>